<?xml version="1.0" standalone="no"?>
<!DOCTYPE svg PUBLIC "-//W3C//DTD SVG 20010904//EN"
 "http://www.w3.org/TR/2001/REC-SVG-20010904/DTD/svg10.dtd">
<svg version="1.0" xmlns="http://www.w3.org/2000/svg"
     width="28px" height="28px" viewBox="0 0 200.000000 200.000000"
 preserveAspectRatio="xMidYMid meet">
<metadata>
Created by potrace 1.15, written by Peter Selinger 2001-2017
</metadata>
<g transform="translate(0.000000,200.000000) scale(0.100000,-0.100000)"
   fill="rgba(0, 0, 0, 0.55)" stroke="none">
<path d="M1032 1852 c-11 -11 -25 -43 -33 -71 -7 -29 -18 -56 -24 -61 -6 -5
-40 -12 -75 -16 l-65 -6 -40 58 c-26 38 -48 60 -63 62 -30 4 -147 -51 -160
-75 -7 -13 -5 -39 6 -87 l16 -69 -48 -43 c-26 -24 -55 -44 -64 -44 -10 0 -37
9 -61 20 -76 35 -96 29 -141 -42 -54 -85 -52 -106 10 -159 27 -23 50 -49 50
-57 0 -8 -8 -40 -17 -70 -19 -59 -27 -65 -105 -76 -69 -10 -78 -23 -78 -116 0
-93 9 -106 78 -116 78 -11 86 -17 105 -76 9 -30 17 -62 17 -70 0 -8 -23 -34
-50 -57 -62 -53 -64 -74 -10 -158 34 -55 43 -63 70 -63 17 0 48 9 70 20 56 28
72 25 126 -24 l48 -43 -16 -69 c-11 -48 -13 -74 -6 -87 13 -24 130 -79 160
-75 15 2 37 24 63 62 l40 58 65 -6 c36 -4 70 -12 76 -19 6 -7 18 -38 28 -69
10 -34 25 -62 36 -68 21 -11 119 -4 162 12 30 11 38 32 38 110 l0 56 62 31
c33 17 62 31 63 31 2 0 29 -20 61 -45 31 -25 65 -45 75 -45 10 0 45 23 78 50
72 59 75 77 31 148 -31 50 -38 86 -20 97 6 4 20 25 31 47 l21 41 75 -7 c93 -9
104 -1 128 89 24 86 17 106 -46 136 -73 34 -79 42 -79 109 0 67 6 75 79 109
63 30 70 50 46 136 -24 90 -35 98 -128 89 l-75 -7 -21 41 c-11 22 -25 43 -31
47 -18 11 -11 47 20 97 44 71 41 89 -31 148 -33 27 -68 50 -78 50 -10 0 -44
-20 -75 -45 -32 -25 -59 -45 -61 -45 -1 0 -30 14 -63 31 l-62 31 0 56 c0 105
-11 115 -127 127 -53 5 -65 3 -81 -13z m135 -347 c98 -31 152 -65 231 -148
150 -158 184 -383 88 -593 -27 -59 -132 -175 -196 -216 -69 -44 -188 -78 -273
-78 -152 0 -275 51 -380 155 -210 208 -211 540 -2 749 143 142 342 191 532
131z"/>
<path d="M875 1383 c-45 -23 -104 -83 -127 -127 -28 -55 -34 -140 -15 -207 18
-60 72 -131 118 -154 l28 -15 3 -138 3 -137 25 0 25 0 3 125 3 125 59 0 59 0
3 -125 3 -125 25 0 25 0 3 137 3 138 28 15 c72 37 131 145 131 241 0 100 -78
216 -169 254 -59 24 -66 11 -69 -132 -2 -110 -5 -128 -22 -143 -19 -17 -21
-17 -40 0 -18 16 -20 31 -20 132 0 153 -13 174 -85 136z m55 -313 c61 -52 85
-50 153 13 26 25 27 29 27 134 l0 108 44 -46 c68 -71 82 -158 40 -243 -72
-141 -261 -163 -362 -41 -72 88 -68 197 11 282 l42 46 5 -111 5 -111 35 -31z"/>
</g>
</svg>
