<?xml version="1.0" standalone="no"?>
<!DOCTYPE svg PUBLIC "-//W3C//DTD SVG 20010904//EN"
 "http://www.w3.org/TR/2001/REC-SVG-20010904/DTD/svg10.dtd">
<svg version="1.0" xmlns="http://www.w3.org/2000/svg"
 width="24" height="24" viewBox="0 0 512.000000 512.000000"
 preserveAspectRatio="xMidYMid meet">
<metadata>
Created by potrace 1.15, written by Peter Selinger 2001-2017
</metadata>
<g transform="translate(0.000000,512.000000) scale(0.100000,-0.100000)" fill="rgba(0, 0, 0, 0.55)" stroke="none">
<path d="M2620 4930 c-683 -60 -1210 -378 -1565 -945 -189 -303 -334 -718
-391 -1123 -8 -59 -20 -112 -27 -118 -7 -6 -153 -91 -324 -188 -219 -124 -313
-182 -313 -194 0 -37 41 -83 93 -107 79 -37 180 -48 362 -42 189 6 498 51 676
98 20 5 124 22 230 39 786 119 1585 129 2384 29 160 -20 457 -65 785 -119 248
-40 410 -55 454 -40 46 15 89 66 112 132 30 83 27 393 -4 545 -146 719 -578
1375 -1140 1730 -231 146 -504 246 -784 287 -134 20 -410 28 -548 16z m10
-2022 c91 -62 89 -182 -3 -238 -116 -71 -253 50 -198 174 36 82 130 112 201
64z m411 -1 c65 -43 86 -124 49 -185 -76 -125 -260 -78 -260 67 0 111 120 179
211 118z m1265 -130 c43 -46 51 -96 25 -151 -23 -47 -80 -86 -126 -86 -92 0
-164 97 -136 182 34 104 164 134 237 55z m385 -60 c90 -60 88 -181 -4 -237
-92 -56 -210 12 -210 121 0 107 126 175 214 116z"/>
<path d="M2735 2270 c-57 -647 -208 -1188 -422 -1512 -25 -38 -87 -116 -139
-174 -130 -145 -130 -145 14 -286 117 -116 144 -130 197 -105 30 14 154 144
218 228 l27 36 129 7 c533 28 977 196 1351 511 264 223 486 509 650 835 49 99
124 279 118 285 -2 2 -62 11 -133 20 -72 9 -165 23 -209 31 -43 7 -82 11 -86
9 -4 -3 -17 -31 -30 -64 -60 -161 -226 -424 -372 -591 -227 -258 -572 -468
-896 -546 -65 -15 -275 -54 -279 -51 0 1 14 43 33 92 127 333 213 750 258
1262 l6 61 -83 6 c-45 3 -141 7 -214 8 l-132 3 -6 -65z"/>
</g>
</svg>
