<?xml version="1.0" standalone="no"?>
<!DOCTYPE svg PUBLIC "-//W3C//DTD SVG 20010904//EN"
 "http://www.w3.org/TR/2001/REC-SVG-20010904/DTD/svg10.dtd">
<svg version="1.0" xmlns="http://www.w3.org/2000/svg"
 width="26px" height="26px" viewBox="0 0 200.000000 200.000000"
 preserveAspectRatio="xMidYMid meet">
<metadata>
Created by potrace 1.15, written by Peter Selinger 2001-2017
</metadata>
<g transform="translate(0.000000,200.000000) scale(0.100000,-0.100000)" fill="rgba(0, 0, 0, 0.55)" stroke="none">
<path d="M442 1884 c-41 -28 -52 -66 -52 -175 l0 -101 33 -33 c59 -59 139 -56
192 7 23 28 25 37 25 140 l0 110 -34 34 c-30 30 -40 34 -88 34 -32 0 -62 -6
-76 -16z"/>
<path d="M1289 1885 c-46 -25 -61 -74 -57 -180 4 -110 20 -141 86 -165 37 -13
47 -13 84 0 66 24 82 55 86 165 4 107 -12 156 -59 180 -35 19 -106 19 -140 0z"/>
<path d="M100 955 l0 -735 466 0 466 0 -22 33 c-11 17 -26 42 -32 55 l-11 22
-364 0 -363 0 0 470 0 470 700 0 700 0 0 -112 1 -113 60 -35 c34 -19 65 -36
70 -38 5 -2 9 147 9 357 l0 361 -120 0 -120 0 0 -35 c0 -144 -176 -228 -289
-138 -45 36 -71 86 -71 136 l0 37 -239 0 -238 0 -5 -45 c-16 -136 -165 -209
-279 -136 -49 31 -78 78 -86 142 l-6 39 -113 0 -114 0 0 -735z"/>
<path d="M700 1065 l0 -95 90 0 90 0 0 95 0 95 -90 0 -90 0 0 -95z"/>
<path d="M1010 1065 l0 -95 44 0 c31 0 59 8 90 28 l45 27 1 68 0 67 -90 0 -90
0 0 -95z"/>
<path d="M1300 1011 c-208 -67 -330 -231 -330 -445 0 -192 98 -349 268 -429
59 -28 79 -32 172 -35 88 -3 115 0 169 18 271 91 396 387 274 648 -32 68 -120
163 -187 201 -105 60 -256 78 -366 42z m186 -112 c119 -22 223 -107 264 -217
18 -46 21 -72 18 -137 -7 -133 -74 -232 -196 -292 -80 -39 -192 -40 -273 -2
-79 37 -133 90 -171 167 -29 59 -33 76 -33 147 0 67 5 89 28 137 16 32 48 77
72 102 58 58 112 83 226 105 3 1 32 -4 65 -10z"/>
<path d="M1550 660 c-53 -27 -109 -49 -127 -49 -57 -1 -83 -71 -43 -111 29
-29 66 -25 98 9 15 16 73 52 130 80 101 51 103 52 100 84 -5 50 -43 47 -158
-13z"/>
<path d="M390 800 l0 -90 90 0 90 0 0 90 0 90 -90 0 -90 0 0 -90z"/>
<path d="M700 800 l0 -90 90 0 90 0 0 90 0 90 -90 0 -90 0 0 -90z"/>
<path d="M390 530 l0 -90 90 0 90 0 0 90 0 90 -90 0 -90 0 0 -90z"/>
<path d="M700 530 l0 -90 90 0 90 0 0 90 0 90 -90 0 -90 0 0 -90z"/>
</g>
</svg>
