<?xml version="1.0" standalone="no"?>
<!DOCTYPE svg PUBLIC "-//W3C//DTD SVG 20010904//EN"
 "http://www.w3.org/TR/2001/REC-SVG-20010904/DTD/svg10.dtd">
<svg version="1.0" xmlns="http://www.w3.org/2000/svg"
 width="24px" height="24px" viewBox="0 0 768.000000 768.000000"
 preserveAspectRatio="xMidYMid meet">
<metadata>
Created by potrace 1.15, written by Peter Selinger 2001-2017
</metadata>
<g transform="translate(0.000000,768.000000) scale(0.100000,-0.100000)" fill="rgba(0, 0, 0, 0.55)" stroke="none">
<path d="M3680 7040 c-417 -46 -759 -225 -1059 -555 -193 -212 -330 -493 -383
-785 -27 -150 -29 -438 -5 -580 68 -396 263 -732 577 -994 215 -180 438 -288
715 -348 86 -19 133 -22 330 -22 261 -1 368 14 556 80 462 161 853 551 1012
1010 68 196 82 289 82 554 -1 206 -3 248 -23 340 -67 308 -199 558 -416 787
-255 269 -556 435 -896 494 -134 23 -368 32 -490 19z"/>
<path d="M2115 4015 c-125 -19 -231 -52 -341 -104 -142 -68 -215 -119 -325
-231 -348 -352 -554 -968 -600 -1795 -13 -235 -6 -472 16 -585 82 -413 354
-695 779 -808 l101 -27 2070 -3 c1804 -2 2082 -1 2166 12 418 66 733 326 848
701 43 138 52 227 52 473 -1 421 -42 761 -135 1129 -95 374 -261 693 -471 908
-201 204 -475 324 -786 342 -129 7 -117 12 -430 -188 -244 -156 -382 -227
-563 -289 -240 -82 -403 -110 -636 -110 -179 0 -312 18 -482 64 -264 73 -409
142 -717 340 -285 183 -292 186 -388 185 -43 -1 -114 -7 -158 -14z"/>
</g>
</svg>
